<svg version="1.1" xmlns="http://www.w3.org/2000/svg" xmlns:xlink="http://www.w3.org/1999/xlink" width="512.000000pt" height="512.000000pt" viewBox="0,0,256,256"><g fill="#b2dfdb" fill-rule="nonzero" stroke="none" stroke-width="1" stroke-linecap="butt" stroke-linejoin="miter" stroke-miterlimit="10" stroke-dasharray="" stroke-dashoffset="0" font-family="none" font-weight="none" font-size="none" text-anchor="none" style="mix-blend-mode: normal"><g transform="translate(0,0.0898) scale(0.5,0.5)"><g transform="translate(0,512) scale(0.1,-0.1)"><path d="M3996,5024c-160,-29 -325,-115 -450,-236c-39,-38 -91,-78 -116,-89c-53,-24 -104,-70 -121,-110l-11,-29h-98h-98l-12,30c-28,68 -129,130 -210,130c-81,0 -182,-62 -210,-130l-12,-30h-98h-98l-12,30c-28,68 -129,130 -210,130c-81,0 -182,-62 -210,-130l-12,-30h-98h-98l-12,30c-28,68 -129,130 -210,130c-81,0 -182,-62 -210,-130l-12,-30h-225h-224l-24,-25l-25,-24v-376v-375h-216c-141,0 -231,-4 -258,-12c-55,-16 -138,-99 -154,-154c-9,-32 -12,-358 -12,-1378v-1336h-55c-46,0 -60,-4 -81,-25l-26,-26l4,-222l3,-223l37,-76c45,-91 103,-147 196,-191l67,-32h2175h2175l67,32c93,44 151,100 196,191l37,76l3,223l4,222l-26,26c-21,21 -35,25 -81,25h-55v1336c0,963 -3,1347 -11,1374c-11,35 -9,41 14,72c38,50 112,212 131,288c26,103 31,250 12,359c-85,484 -544,803 -1030,715zM4375,4846c113,-36 198,-89 290,-181c91,-91 144,-175 182,-290c23,-71 26,-96 26,-215c0,-119 -3,-144 -26,-215c-38,-115 -91,-199 -182,-290c-91,-91 -175,-144 -290,-182c-71,-23 -96,-26 -215,-26c-119,0 -144,3 -215,26c-115,38 -199,91 -290,182c-91,91 -144,175 -182,290c-23,71 -26,96 -26,215c0,119 3,144 26,215c38,115 91,199 182,290c112,112 235,179 379,205c89,16 251,5 341,-24zM1655,4535c24,-23 25,-31 25,-135c0,-104 -1,-112 -25,-135c-15,-16 -36,-25 -55,-25c-19,0 -40,9 -55,25c-24,23 -25,31 -25,135c0,104 1,112 25,135c15,16 36,25 55,25c19,0 40,-9 55,-25zM2295,4535c24,-23 25,-31 25,-135c0,-104 -1,-112 -25,-135c-15,-16 -36,-25 -55,-25c-19,0 -40,9 -55,25c-24,23 -25,31 -25,135c0,104 1,112 25,135c15,16 36,25 55,25c19,0 40,-9 55,-25zM2935,4535c24,-23 25,-31 25,-135c0,-104 -1,-112 -25,-135c-15,-16 -36,-25 -55,-25c-19,0 -40,9 -55,25c-24,23 -25,31 -25,135c0,104 1,112 25,135c15,16 36,25 55,25c19,0 40,-9 55,-25zM1360,4344c0,-31 5,-75 12,-98c16,-55 99,-138 154,-154c94,-28 169,-8 239,63c57,56 75,102 75,189v56h80h80v-56c0,-87 18,-133 75,-189c101,-102 229,-102 330,0c57,56 75,102 75,189v56h80h80v-56c0,-31 5,-75 12,-98c16,-55 99,-138 154,-154c94,-28 169,-8 239,63c57,56 75,102 75,189v56h80h80l1,-62c1,-35 1,-101 -1,-148c-1,-77 6,-143 26,-237l7,-33h-1137h-1136v240v240h160h160zM3396,3728c9,-18 32,-54 50,-80l34,-48h-75c-67,0 -79,-3 -100,-25c-25,-24 -25,-26 -25,-215c0,-257 -17,-240 240,-240c189,0 191,0 215,25c23,22 25,31 25,125c0,55 4,100 9,100c5,0 33,-11 62,-24c51,-22 164,-53 219,-58l25,-3l3,-482l2,-483h-1520h-1520v720v720h1170h1169zM880,3520v-80h-135c-131,0 -137,-1 -160,-25l-25,-24v-1151v-1151l25,-24l24,-25h1951h1951l24,25l25,24v1143l1,1143l79,51l80,51v-1298v-1299h-2160h-2160v1335v1336l25,24c24,25 24,25 240,25h215zM3600,3360v-80h-80h-80v80v80h80h80zM4400,2255v-1055h-1840h-1840v1040v1040h80h80v-695v-696l25,-24l24,-25h1631h1631l24,25l25,24v696c0,548 3,696 13,699c20,6 111,23 130,25c16,1 17,-55 17,-1054zM4080,2080v-80h-1520h-1520v80v80h1520h1520zM1840,664c0,-31 5,-75 12,-98c16,-55 99,-138 154,-154c59,-17 1049,-17 1108,0c55,16 138,99 154,154c7,23 12,67 12,98v56h800h800v-136c0,-78 -5,-154 -12,-178c-16,-55 -99,-138 -154,-154c-60,-18 -4248,-18 -4308,0c-55,16 -138,99 -154,154c-7,24 -12,100 -12,178v136h800h800zM3120,665c0,-46 -4,-60 -25,-80l-24,-25h-511h-511l-24,25c-21,20 -25,34 -25,80v55h560h560z"></path><path d="M4248,4283l-248,-248l-88,88c-48,48 -92,87 -98,87c-13,0 -104,-93 -104,-106c0,-5 58,-67 128,-137c114,-112 133,-127 162,-127c31,0 59,25 322,287c158,158 288,292 288,298c0,13 -92,105 -105,105c-6,0 -121,-111 -257,-247z"></path><path d="M1385,3575c-25,-24 -25,-26 -25,-215c0,-257 -17,-240 240,-240c257,0 240,-17 240,240c0,257 17,240 -240,240c-189,0 -191,0 -215,-25zM1680,3360v-80h-80h-80v80v80h80h80z"></path><path d="M2025,3575c-25,-24 -25,-26 -25,-215c0,-257 -17,-240 240,-240c257,0 240,-17 240,240c0,257 17,240 -240,240c-189,0 -191,0 -215,-25zM2320,3360v-80h-80h-80v80v80h80h80z"></path><path d="M2665,3575c-25,-24 -25,-26 -25,-215c0,-257 -17,-240 240,-240c189,0 191,0 215,25c25,24 25,26 25,215c0,257 17,240 -240,240c-189,0 -191,0 -215,-25zM2960,3360v-80h-80h-80v80v80h80h80z"></path><path d="M1385,2935c-25,-24 -25,-26 -25,-215c0,-257 -17,-240 240,-240c189,0 191,0 215,25c25,24 25,26 25,215c0,257 17,240 -240,240c-189,0 -191,0 -215,-25zM1680,2720v-80h-80h-80v80v80h80h80z"></path><path d="M2025,2935c-25,-24 -25,-26 -25,-215c0,-257 -17,-240 240,-240c189,0 191,0 215,25c25,24 25,26 25,215c0,257 17,240 -240,240c-189,0 -191,0 -215,-25zM2320,2720v-80h-80h-80v80v80h80h80z"></path><path d="M2665,2935c-25,-24 -25,-26 -25,-215c0,-257 -17,-240 240,-240c257,0 240,-17 240,240c0,257 17,240 -240,240c-189,0 -191,0 -215,-25zM2960,2720v-80h-80h-80v80v80h80h80z"></path><path d="M3305,2935c-25,-24 -25,-26 -25,-215c0,-257 -17,-240 240,-240c257,0 240,-17 240,240c0,257 17,240 -240,240c-189,0 -191,0 -215,-25zM3600,2720v-80h-80h-80v80v80h80h80z"></path><path d="M400,480v-80h80h80v80v80h-80h-80z"></path><path d="M720,480v-80h80h80v80v80h-80h-80z"></path></g></g></g></svg>